<svg width="227" height="13" viewBox="0 0 227 13" fill="none" xmlns="http://www.w3.org/2000/svg">
<path opacity="0.8" d="M1.41477 10H0.306818L3.51136 1.27273H4.60227L7.80682 10H6.69886L4.09091 2.65341H4.02273L1.41477 10ZM1.82386 6.59091H6.28977V7.52841H1.82386V6.59091ZM9.02983 12.4545V3.45455H10.0014V4.49432H10.1207C10.1946 4.38068 10.2969 4.2358 10.4276 4.05966C10.5611 3.88068 10.7514 3.72159 10.9986 3.58239C11.2486 3.44034 11.5866 3.36932 12.0128 3.36932C12.5639 3.36932 13.0497 3.5071 13.4702 3.78267C13.8906 4.05824 14.2188 4.44886 14.4545 4.95455C14.6903 5.46023 14.8082 6.05682 14.8082 6.74432C14.8082 7.4375 14.6903 8.03835 14.4545 8.54688C14.2188 9.05256 13.892 9.4446 13.4744 9.72301C13.0568 9.99858 12.5753 10.1364 12.0298 10.1364C11.6094 10.1364 11.2727 10.0668 11.0199 9.92756C10.767 9.78551 10.5724 9.625 10.4361 9.44602C10.2997 9.2642 10.1946 9.11364 10.1207 8.99432H10.0355V12.4545H9.02983ZM10.0185 6.72727C10.0185 7.22159 10.0909 7.65767 10.2358 8.03551C10.3807 8.41051 10.5923 8.70455 10.8707 8.91761C11.1491 9.12784 11.4901 9.23295 11.8935 9.23295C12.3139 9.23295 12.6648 9.12216 12.946 8.90057C13.2301 8.67614 13.4432 8.375 13.5852 7.99716C13.7301 7.61648 13.8026 7.19318 13.8026 6.72727C13.8026 6.26705 13.7315 5.85227 13.5895 5.48295C13.4503 5.1108 13.2386 4.81676 12.9545 4.60085C12.6733 4.3821 12.3196 4.27273 11.8935 4.27273C11.4844 4.27273 11.1406 4.37642 10.8622 4.58381C10.5838 4.78835 10.3736 5.07528 10.2315 5.4446C10.0895 5.81108 10.0185 6.23864 10.0185 6.72727ZM19.0866 10.1364C18.456 10.1364 17.9119 9.99716 17.4545 9.71875C17 9.4375 16.6491 9.04545 16.402 8.54261C16.1577 8.03693 16.0355 7.44886 16.0355 6.77841C16.0355 6.10795 16.1577 5.51705 16.402 5.00568C16.6491 4.49148 16.9929 4.09091 17.4332 3.80398C17.8764 3.5142 18.3935 3.36932 18.9844 3.36932C19.3253 3.36932 19.6619 3.42614 19.9943 3.53977C20.3267 3.65341 20.6293 3.83807 20.902 4.09375C21.1747 4.34659 21.392 4.68182 21.554 5.09943C21.7159 5.51705 21.7969 6.03125 21.7969 6.64205V7.06818H16.7514V6.19886H20.7741C20.7741 5.82955 20.7003 5.5 20.5526 5.21023C20.4077 4.92045 20.2003 4.69176 19.9304 4.52415C19.6634 4.35653 19.348 4.27273 18.9844 4.27273C18.5838 4.27273 18.2372 4.37216 17.9446 4.57102C17.6548 4.76705 17.4318 5.02273 17.2756 5.33807C17.1193 5.65341 17.0412 5.99148 17.0412 6.35227V6.93182C17.0412 7.42614 17.1264 7.84517 17.2969 8.18892C17.4702 8.52983 17.7102 8.78977 18.017 8.96875C18.3239 9.14489 18.6804 9.23295 19.0866 9.23295C19.3509 9.23295 19.5895 9.19602 19.8026 9.12216C20.0185 9.04545 20.2045 8.93182 20.3608 8.78125C20.517 8.62784 20.6378 8.4375 20.723 8.21023L21.6946 8.48295C21.5923 8.8125 21.4205 9.10227 21.179 9.35227C20.9375 9.59943 20.6392 9.79261 20.2841 9.93182C19.929 10.0682 19.5298 10.1364 19.0866 10.1364ZM24.3324 6.0625V10H23.3267V3.45455H24.2983V4.47727H24.3835C24.5369 4.14489 24.7699 3.87784 25.0824 3.67614C25.3949 3.47159 25.7983 3.36932 26.2926 3.36932C26.7358 3.36932 27.1236 3.46023 27.456 3.64205C27.7884 3.82102 28.0469 4.09375 28.2315 4.46023C28.4162 4.82386 28.5085 5.28409 28.5085 5.84091V10H27.5028V5.90909C27.5028 5.39489 27.3693 4.99432 27.1023 4.70739C26.8352 4.41761 26.4688 4.27273 26.0028 4.27273C25.6818 4.27273 25.3949 4.34233 25.142 4.48153C24.892 4.62074 24.6946 4.82386 24.5497 5.09091C24.4048 5.35795 24.3324 5.68182 24.3324 6.0625ZM32.2724 10.1534C31.8576 10.1534 31.4812 10.0753 31.1431 9.91903C30.805 9.75994 30.5366 9.53125 30.3377 9.23295C30.1388 8.93182 30.0394 8.56818 30.0394 8.14205C30.0394 7.76705 30.1133 7.46307 30.261 7.23011C30.4087 6.99432 30.6062 6.80966 30.8533 6.67614C31.1005 6.54261 31.3732 6.44318 31.6715 6.37784C31.9727 6.30966 32.2752 6.25568 32.5792 6.21591C32.9769 6.16477 33.2994 6.12642 33.5465 6.10085C33.7965 6.07244 33.9783 6.02557 34.092 5.96023C34.2085 5.89489 34.2667 5.78125 34.2667 5.61932V5.58523C34.2667 5.16477 34.1516 4.83807 33.9215 4.60511C33.6942 4.37216 33.3491 4.25568 32.886 4.25568C32.4059 4.25568 32.0295 4.3608 31.7567 4.57102C31.484 4.78125 31.2923 5.00568 31.1815 5.24432L30.2269 4.90341C30.3974 4.50568 30.6246 4.19602 30.9087 3.97443C31.1957 3.75 31.5082 3.59375 31.8462 3.50568C32.1871 3.41477 32.5224 3.36932 32.8519 3.36932C33.0621 3.36932 33.3036 3.39489 33.5763 3.44602C33.8519 3.49432 34.1175 3.59517 34.3732 3.74858C34.6317 3.90199 34.8462 4.13352 35.0167 4.44318C35.1871 4.75284 35.2724 5.16761 35.2724 5.6875V10H34.2667V9.11364H34.2156C34.1474 9.25568 34.0337 9.40767 33.8746 9.5696C33.7156 9.73153 33.5039 9.86932 33.2397 9.98295C32.9755 10.0966 32.6531 10.1534 32.2724 10.1534ZM32.4258 9.25C32.8235 9.25 33.1587 9.17188 33.4315 9.01562C33.707 8.85938 33.9144 8.65767 34.0536 8.41051C34.1957 8.16335 34.2667 7.90341 34.2667 7.63068V6.71023C34.2241 6.76136 34.1303 6.80824 33.9854 6.85085C33.8434 6.89062 33.6786 6.92614 33.4911 6.95739C33.3065 6.9858 33.1261 7.01136 32.9499 7.03409C32.7766 7.05398 32.636 7.07102 32.5281 7.08523C32.2667 7.11932 32.0224 7.17472 31.7951 7.25142C31.5707 7.32528 31.3888 7.4375 31.2496 7.58807C31.1133 7.7358 31.0451 7.9375 31.0451 8.19318C31.0451 8.54261 31.1744 8.80682 31.4329 8.9858C31.6942 9.16193 32.0252 9.25 32.4258 9.25ZM41.7443 4.92045L40.8409 5.17614C40.7841 5.02557 40.7003 4.87926 40.5895 4.73722C40.4815 4.59233 40.3338 4.47301 40.1463 4.37926C39.9588 4.28551 39.7188 4.23864 39.4261 4.23864C39.0256 4.23864 38.6918 4.33097 38.4247 4.51562C38.1605 4.69744 38.0284 4.92898 38.0284 5.21023C38.0284 5.46023 38.1193 5.65767 38.3011 5.80256C38.483 5.94744 38.767 6.06818 39.1534 6.16477L40.125 6.40341C40.7102 6.54545 41.1463 6.76278 41.4332 7.0554C41.7202 7.34517 41.8636 7.71875 41.8636 8.17614C41.8636 8.55114 41.7557 8.88636 41.5398 9.18182C41.3267 9.47727 41.0284 9.71023 40.6449 9.88068C40.2614 10.0511 39.8153 10.1364 39.3068 10.1364C38.6392 10.1364 38.0866 9.99148 37.6491 9.7017C37.2116 9.41193 36.9347 8.98864 36.8182 8.43182L37.7727 8.19318C37.8636 8.54545 38.0355 8.80966 38.2884 8.9858C38.544 9.16193 38.8778 9.25 39.2898 9.25C39.7585 9.25 40.1307 9.15057 40.4062 8.9517C40.6847 8.75 40.8239 8.50852 40.8239 8.22727C40.8239 8 40.7443 7.80966 40.5852 7.65625C40.4261 7.5 40.1818 7.38352 39.8523 7.30682L38.7614 7.05114C38.1619 6.90909 37.7216 6.68892 37.4403 6.39062C37.1619 6.08949 37.0227 5.71307 37.0227 5.26136C37.0227 4.89205 37.1264 4.56534 37.3338 4.28125C37.544 3.99716 37.8295 3.77415 38.1903 3.61222C38.554 3.45028 38.9659 3.36932 39.4261 3.36932C40.0739 3.36932 40.5824 3.51136 40.9517 3.79545C41.3239 4.07955 41.5881 4.45455 41.7443 4.92045ZM47.7582 1.27273V10H46.7525V1.27273H47.7582ZM52.3445 10.1364C51.7138 10.1364 51.1697 9.99716 50.7124 9.71875C50.2578 9.4375 49.907 9.04545 49.6598 8.54261C49.4155 8.03693 49.2933 7.44886 49.2933 6.77841C49.2933 6.10795 49.4155 5.51705 49.6598 5.00568C49.907 4.49148 50.2507 4.09091 50.6911 3.80398C51.1342 3.5142 51.6513 3.36932 52.2422 3.36932C52.5831 3.36932 52.9197 3.42614 53.2521 3.53977C53.5845 3.65341 53.8871 3.83807 54.1598 4.09375C54.4325 4.34659 54.6499 4.68182 54.8118 5.09943C54.9737 5.51705 55.0547 6.03125 55.0547 6.64205V7.06818H50.0092V6.19886H54.032C54.032 5.82955 53.9581 5.5 53.8104 5.21023C53.6655 4.92045 53.4581 4.69176 53.1882 4.52415C52.9212 4.35653 52.6058 4.27273 52.2422 4.27273C51.8416 4.27273 51.495 4.37216 51.2024 4.57102C50.9126 4.76705 50.6896 5.02273 50.5334 5.33807C50.3771 5.65341 50.299 5.99148 50.299 6.35227V6.93182C50.299 7.42614 50.3842 7.84517 50.5547 8.18892C50.728 8.52983 50.968 8.78977 51.2749 8.96875C51.5817 9.14489 51.9382 9.23295 52.3445 9.23295C52.6087 9.23295 52.8473 9.19602 53.0604 9.12216C53.2763 9.04545 53.4624 8.93182 53.6186 8.78125C53.7749 8.62784 53.8956 8.4375 53.9808 8.21023L54.9524 8.48295C54.8501 8.8125 54.6783 9.10227 54.4368 9.35227C54.1953 9.59943 53.897 9.79261 53.5419 9.93182C53.1868 10.0682 52.7876 10.1364 52.3445 10.1364ZM59.4311 3.45455V4.30682H56.0391V3.45455H59.4311ZM57.0277 1.88636H58.0334V8.125C58.0334 8.40909 58.0746 8.62216 58.157 8.7642C58.2422 8.90341 58.3501 8.99716 58.4808 9.04545C58.6143 9.09091 58.755 9.11364 58.9027 9.11364C59.0135 9.11364 59.1044 9.10795 59.1754 9.09659C59.2464 9.08239 59.3033 9.07102 59.3459 9.0625L59.5504 9.96591C59.4822 9.99148 59.3871 10.017 59.2649 10.0426C59.1428 10.071 58.9879 10.0852 58.8004 10.0852C58.5163 10.0852 58.2379 10.0241 57.9652 9.90199C57.6953 9.77983 57.4709 9.59375 57.2919 9.34375C57.1158 9.09375 57.0277 8.77841 57.0277 8.39773V1.88636ZM60.9439 10V3.45455H61.9155V4.44318H61.9837C62.103 4.11932 62.3189 3.85653 62.6314 3.65483C62.9439 3.45312 63.2962 3.35227 63.6882 3.35227C63.7621 3.35227 63.8544 3.35369 63.9652 3.35653C64.076 3.35937 64.1598 3.36364 64.2166 3.36932V4.39205C64.1825 4.38352 64.1044 4.37074 63.9822 4.35369C63.8629 4.33381 63.7365 4.32386 63.603 4.32386C63.2848 4.32386 63.0007 4.39062 62.7507 4.52415C62.5036 4.65483 62.3075 4.83665 62.1626 5.0696C62.0206 5.29972 61.9496 5.5625 61.9496 5.85795V10H60.9439ZM67.3349 10.1534C66.9201 10.1534 66.5437 10.0753 66.2056 9.91903C65.8675 9.75994 65.5991 9.53125 65.4002 9.23295C65.2013 8.93182 65.1019 8.56818 65.1019 8.14205C65.1019 7.76705 65.1758 7.46307 65.3235 7.23011C65.4712 6.99432 65.6687 6.80966 65.9158 6.67614C66.163 6.54261 66.4357 6.44318 66.734 6.37784C67.0352 6.30966 67.3377 6.25568 67.6417 6.21591C68.0394 6.16477 68.3619 6.12642 68.609 6.10085C68.859 6.07244 69.0408 6.02557 69.1545 5.96023C69.271 5.89489 69.3292 5.78125 69.3292 5.61932V5.58523C69.3292 5.16477 69.2141 4.83807 68.984 4.60511C68.7567 4.37216 68.4116 4.25568 67.9485 4.25568C67.4684 4.25568 67.092 4.3608 66.8192 4.57102C66.5465 4.78125 66.3548 5.00568 66.244 5.24432L65.2894 4.90341C65.4599 4.50568 65.6871 4.19602 65.9712 3.97443C66.2582 3.75 66.5707 3.59375 66.9087 3.50568C67.2496 3.41477 67.5849 3.36932 67.9144 3.36932C68.1246 3.36932 68.3661 3.39489 68.6388 3.44602C68.9144 3.49432 69.18 3.59517 69.4357 3.74858C69.6942 3.90199 69.9087 4.13352 70.0792 4.44318C70.2496 4.75284 70.3349 5.16761 70.3349 5.6875V10H69.3292V9.11364H69.2781C69.2099 9.25568 69.0962 9.40767 68.9371 9.5696C68.7781 9.73153 68.5664 9.86932 68.3022 9.98295C68.038 10.0966 67.7156 10.1534 67.3349 10.1534ZM67.4883 9.25C67.886 9.25 68.2212 9.17188 68.494 9.01562C68.7695 8.85938 68.9769 8.65767 69.1161 8.41051C69.2582 8.16335 69.3292 7.90341 69.3292 7.63068V6.71023C69.2866 6.76136 69.1928 6.80824 69.0479 6.85085C68.9059 6.89062 68.7411 6.92614 68.5536 6.95739C68.369 6.9858 68.1886 7.01136 68.0124 7.03409C67.8391 7.05398 67.6985 7.07102 67.5906 7.08523C67.3292 7.11932 67.0849 7.17472 66.8576 7.25142C66.6332 7.32528 66.4513 7.4375 66.3121 7.58807C66.1758 7.7358 66.1076 7.9375 66.1076 8.19318C66.1076 8.54261 66.2369 8.80682 66.4954 8.9858C66.7567 9.16193 67.0877 9.25 67.4883 9.25ZM76.8068 4.92045L75.9034 5.17614C75.8466 5.02557 75.7628 4.87926 75.652 4.73722C75.544 4.59233 75.3963 4.47301 75.2088 4.37926C75.0213 4.28551 74.7812 4.23864 74.4886 4.23864C74.0881 4.23864 73.7543 4.33097 73.4872 4.51562C73.223 4.69744 73.0909 4.92898 73.0909 5.21023C73.0909 5.46023 73.1818 5.65767 73.3636 5.80256C73.5455 5.94744 73.8295 6.06818 74.2159 6.16477L75.1875 6.40341C75.7727 6.54545 76.2088 6.76278 76.4957 7.0554C76.7827 7.34517 76.9261 7.71875 76.9261 8.17614C76.9261 8.55114 76.8182 8.88636 76.6023 9.18182C76.3892 9.47727 76.0909 9.71023 75.7074 9.88068C75.3239 10.0511 74.8778 10.1364 74.3693 10.1364C73.7017 10.1364 73.1491 9.99148 72.7116 9.7017C72.2741 9.41193 71.9972 8.98864 71.8807 8.43182L72.8352 8.19318C72.9261 8.54545 73.098 8.80966 73.3509 8.9858C73.6065 9.16193 73.9403 9.25 74.3523 9.25C74.821 9.25 75.1932 9.15057 75.4688 8.9517C75.7472 8.75 75.8864 8.50852 75.8864 8.22727C75.8864 8 75.8068 7.80966 75.6477 7.65625C75.4886 7.5 75.2443 7.38352 74.9148 7.30682L73.8239 7.05114C73.2244 6.90909 72.7841 6.68892 72.5028 6.39062C72.2244 6.08949 72.0852 5.71307 72.0852 5.26136C72.0852 4.89205 72.1889 4.56534 72.3963 4.28125C72.6065 3.99716 72.892 3.77415 73.2528 3.61222C73.6165 3.45028 74.0284 3.36932 74.4886 3.36932C75.1364 3.36932 75.6449 3.51136 76.0142 3.79545C76.3864 4.07955 76.6506 4.45455 76.8068 4.92045ZM81.815 10V3.45455H82.7866V4.47727H82.8718C83.0082 4.12784 83.2283 3.85653 83.5323 3.66335C83.8363 3.46733 84.2013 3.36932 84.6275 3.36932C85.0593 3.36932 85.4187 3.46733 85.7056 3.66335C85.9954 3.85653 86.2212 4.12784 86.3832 4.47727H86.4513C86.619 4.1392 86.8704 3.87074 87.2056 3.67188C87.5408 3.47017 87.9428 3.36932 88.4116 3.36932C88.9968 3.36932 89.4755 3.55256 89.8477 3.91903C90.2198 4.28267 90.4059 4.84943 90.4059 5.61932V10H89.4002V5.61932C89.4002 5.13636 89.2681 4.79119 89.0039 4.58381C88.7397 4.37642 88.4286 4.27273 88.0707 4.27273C87.6104 4.27273 87.2539 4.41193 87.0011 4.69034C86.7482 4.96591 86.6218 5.31534 86.6218 5.73864V10H85.5991V5.51705C85.5991 5.14489 85.4783 4.84517 85.2369 4.6179C84.9954 4.38778 84.6843 4.27273 84.3036 4.27273C84.0423 4.27273 83.7979 4.34233 83.5707 4.48153C83.3462 4.62074 83.1644 4.81392 83.0252 5.06108C82.8888 5.3054 82.8207 5.58807 82.8207 5.90909V10H81.815ZM92.2447 10V3.45455H93.2504V10H92.2447ZM92.756 2.36364C92.56 2.36364 92.391 2.29688 92.2489 2.16335C92.1097 2.02983 92.0401 1.86932 92.0401 1.68182C92.0401 1.49432 92.1097 1.33381 92.2489 1.20028C92.391 1.06676 92.56 1 92.756 1C92.9521 1 93.1197 1.06676 93.2589 1.20028C93.4009 1.33381 93.4719 1.49432 93.4719 1.68182C93.4719 1.86932 93.4009 2.02983 93.2589 2.16335C93.1197 2.29688 92.9521 2.36364 92.756 2.36364ZM96.098 6.0625V10H95.0923V3.45455H96.0639V4.47727H96.1491C96.3026 4.14489 96.5355 3.87784 96.848 3.67614C97.1605 3.47159 97.5639 3.36932 98.0582 3.36932C98.5014 3.36932 98.8892 3.46023 99.2216 3.64205C99.554 3.82102 99.8125 4.09375 99.9972 4.46023C100.182 4.82386 100.274 5.28409 100.274 5.84091V10H99.2685V5.90909C99.2685 5.39489 99.1349 4.99432 98.8679 4.70739C98.6009 4.41761 98.2344 4.27273 97.7685 4.27273C97.4474 4.27273 97.1605 4.34233 96.9077 4.48153C96.6577 4.62074 96.4602 4.82386 96.3153 5.09091C96.1705 5.35795 96.098 5.68182 96.098 6.0625ZM106.237 7.32386V3.45455H107.243V10H106.237V8.89205H106.169C106.015 9.22443 105.777 9.5071 105.453 9.74006C105.129 9.97017 104.72 10.0852 104.225 10.0852C103.816 10.0852 103.453 9.99574 103.135 9.81676C102.816 9.63494 102.566 9.36222 102.385 8.99858C102.203 8.6321 102.112 8.17045 102.112 7.61364V3.45455H103.118V7.54545C103.118 8.02273 103.251 8.40341 103.518 8.6875C103.788 8.97159 104.132 9.11364 104.549 9.11364C104.799 9.11364 105.054 9.04972 105.312 8.92188C105.574 8.79403 105.792 8.59801 105.968 8.33381C106.147 8.0696 106.237 7.73295 106.237 7.32386ZM104.225 2.56818L105.265 0.590909H106.441L105.112 2.56818H104.225ZM113.721 4.92045L112.817 5.17614C112.761 5.02557 112.677 4.87926 112.566 4.73722C112.458 4.59233 112.31 4.47301 112.123 4.37926C111.935 4.28551 111.695 4.23864 111.403 4.23864C111.002 4.23864 110.668 4.33097 110.401 4.51562C110.137 4.69744 110.005 4.92898 110.005 5.21023C110.005 5.46023 110.096 5.65767 110.278 5.80256C110.46 5.94744 110.744 6.06818 111.13 6.16477L112.102 6.40341C112.687 6.54545 113.123 6.76278 113.41 7.0554C113.697 7.34517 113.84 7.71875 113.84 8.17614C113.84 8.55114 113.732 8.88636 113.516 9.18182C113.303 9.47727 113.005 9.71023 112.621 9.88068C112.238 10.0511 111.792 10.1364 111.283 10.1364C110.616 10.1364 110.063 9.99148 109.626 9.7017C109.188 9.41193 108.911 8.98864 108.795 8.43182L109.749 8.19318C109.84 8.54545 110.012 8.80966 110.265 8.9858C110.521 9.16193 110.854 9.25 111.266 9.25C111.735 9.25 112.107 9.15057 112.383 8.9517C112.661 8.75 112.8 8.50852 112.8 8.22727C112.8 8 112.721 7.80966 112.562 7.65625C112.403 7.5 112.158 7.38352 111.829 7.30682L110.738 7.05114C110.138 6.90909 109.698 6.68892 109.417 6.39062C109.138 6.08949 108.999 5.71307 108.999 5.26136C108.999 4.89205 109.103 4.56534 109.31 4.28125C109.521 3.99716 109.806 3.77415 110.167 3.61222C110.531 3.45028 110.942 3.36932 111.403 3.36932C112.05 3.36932 112.559 3.51136 112.928 3.79545C113.3 4.07955 113.565 4.45455 113.721 4.92045ZM118.013 10.1364C117.4 10.1364 116.871 9.99148 116.428 9.7017C115.985 9.41193 115.644 9.01278 115.405 8.50426C115.167 7.99574 115.047 7.41477 115.047 6.76136C115.047 6.09659 115.169 5.50994 115.414 5.00142C115.661 4.49006 116.005 4.09091 116.445 3.80398C116.888 3.5142 117.405 3.36932 117.996 3.36932C118.456 3.36932 118.871 3.45455 119.24 3.625C119.61 3.79545 119.912 4.03409 120.148 4.34091C120.384 4.64773 120.53 5.00568 120.587 5.41477H119.581C119.505 5.11648 119.334 4.85227 119.07 4.62216C118.809 4.3892 118.456 4.27273 118.013 4.27273C117.621 4.27273 117.277 4.375 116.982 4.57955C116.689 4.78125 116.461 5.06676 116.296 5.43608C116.134 5.80256 116.053 6.23295 116.053 6.72727C116.053 7.23295 116.132 7.6733 116.292 8.0483C116.453 8.4233 116.681 8.71449 116.973 8.92188C117.269 9.12926 117.615 9.23295 118.013 9.23295C118.275 9.23295 118.512 9.1875 118.725 9.09659C118.938 9.00568 119.118 8.875 119.266 8.70455C119.414 8.53409 119.519 8.32955 119.581 8.09091H120.587C120.53 8.47727 120.39 8.82528 120.165 9.13494C119.944 9.44176 119.65 9.68608 119.283 9.8679C118.919 10.0469 118.496 10.1364 118.013 10.1364ZM126.182 7.32386V3.45455H127.188V10H126.182V8.89205H126.114C125.961 9.22443 125.722 9.5071 125.398 9.74006C125.074 9.97017 124.665 10.0852 124.171 10.0852C123.762 10.0852 123.398 9.99574 123.08 9.81676C122.762 9.63494 122.512 9.36222 122.33 8.99858C122.148 8.6321 122.057 8.17045 122.057 7.61364V3.45455H123.063V7.54545C123.063 8.02273 123.196 8.40341 123.463 8.6875C123.733 8.97159 124.077 9.11364 124.495 9.11364C124.745 9.11364 124.999 9.04972 125.257 8.92188C125.519 8.79403 125.738 8.59801 125.914 8.33381C126.093 8.0696 126.182 7.73295 126.182 7.32386ZM130.036 1.27273V10H129.03V1.27273H130.036ZM133.804 10.1534C133.389 10.1534 133.012 10.0753 132.674 9.91903C132.336 9.75994 132.068 9.53125 131.869 9.23295C131.67 8.93182 131.571 8.56818 131.571 8.14205C131.571 7.76705 131.645 7.46307 131.792 7.23011C131.94 6.99432 132.137 6.80966 132.385 6.67614C132.632 6.54261 132.904 6.44318 133.203 6.37784C133.504 6.30966 133.806 6.25568 134.11 6.21591C134.508 6.16477 134.831 6.12642 135.078 6.10085C135.328 6.07244 135.51 6.02557 135.623 5.96023C135.74 5.89489 135.798 5.78125 135.798 5.61932V5.58523C135.798 5.16477 135.683 4.83807 135.453 4.60511C135.225 4.37216 134.88 4.25568 134.417 4.25568C133.937 4.25568 133.561 4.3608 133.288 4.57102C133.015 4.78125 132.824 5.00568 132.713 5.24432L131.758 4.90341C131.929 4.50568 132.156 4.19602 132.44 3.97443C132.727 3.75 133.039 3.59375 133.377 3.50568C133.718 3.41477 134.054 3.36932 134.383 3.36932C134.593 3.36932 134.835 3.39489 135.108 3.44602C135.383 3.49432 135.649 3.59517 135.904 3.74858C136.163 3.90199 136.377 4.13352 136.548 4.44318C136.718 4.75284 136.804 5.16761 136.804 5.6875V10H135.798V9.11364H135.747C135.679 9.25568 135.565 9.40767 135.406 9.5696C135.247 9.73153 135.035 9.86932 134.771 9.98295C134.507 10.0966 134.184 10.1534 133.804 10.1534ZM133.957 9.25C134.355 9.25 134.69 9.17188 134.963 9.01562C135.238 8.85938 135.446 8.65767 135.585 8.41051C135.727 8.16335 135.798 7.90341 135.798 7.63068V6.71023C135.755 6.76136 135.662 6.80824 135.517 6.85085C135.375 6.89062 135.21 6.92614 135.022 6.95739C134.838 6.9858 134.657 7.01136 134.481 7.03409C134.308 7.05398 134.167 7.07102 134.059 7.08523C133.798 7.11932 133.554 7.17472 133.326 7.25142C133.102 7.32528 132.92 7.4375 132.781 7.58807C132.645 7.7358 132.576 7.9375 132.576 8.19318C132.576 8.54261 132.706 8.80682 132.964 8.9858C133.225 9.16193 133.556 9.25 133.957 9.25ZM143.276 4.92045L142.372 5.17614C142.315 5.02557 142.232 4.87926 142.121 4.73722C142.013 4.59233 141.865 4.47301 141.678 4.37926C141.49 4.28551 141.25 4.23864 140.957 4.23864C140.557 4.23864 140.223 4.33097 139.956 4.51562C139.692 4.69744 139.56 4.92898 139.56 5.21023C139.56 5.46023 139.651 5.65767 139.832 5.80256C140.014 5.94744 140.298 6.06818 140.685 6.16477L141.656 6.40341C142.241 6.54545 142.678 6.76278 142.964 7.0554C143.251 7.34517 143.395 7.71875 143.395 8.17614C143.395 8.55114 143.287 8.88636 143.071 9.18182C142.858 9.47727 142.56 9.71023 142.176 9.88068C141.793 10.0511 141.347 10.1364 140.838 10.1364C140.17 10.1364 139.618 9.99148 139.18 9.7017C138.743 9.41193 138.466 8.98864 138.349 8.43182L139.304 8.19318C139.395 8.54545 139.567 8.80966 139.82 8.9858C140.075 9.16193 140.409 9.25 140.821 9.25C141.29 9.25 141.662 9.15057 141.938 8.9517C142.216 8.75 142.355 8.50852 142.355 8.22727C142.355 8 142.276 7.80966 142.116 7.65625C141.957 7.5 141.713 7.38352 141.384 7.30682L140.293 7.05114C139.693 6.90909 139.253 6.68892 138.972 6.39062C138.693 6.08949 138.554 5.71307 138.554 5.26136C138.554 4.89205 138.658 4.56534 138.865 4.28125C139.075 3.99716 139.361 3.77415 139.722 3.61222C140.085 3.45028 140.497 3.36932 140.957 3.36932C141.605 3.36932 142.114 3.51136 142.483 3.79545C142.855 4.07955 143.119 4.45455 143.276 4.92045ZM151.028 10.1364C150.397 10.1364 149.853 9.99716 149.396 9.71875C148.941 9.4375 148.591 9.04545 148.343 8.54261C148.099 8.03693 147.977 7.44886 147.977 6.77841C147.977 6.10795 148.099 5.51705 148.343 5.00568C148.591 4.49148 148.934 4.09091 149.375 3.80398C149.818 3.5142 150.335 3.36932 150.926 3.36932C151.267 3.36932 151.603 3.42614 151.936 3.53977C152.268 3.65341 152.571 3.83807 152.843 4.09375C153.116 4.34659 153.333 4.68182 153.495 5.09943C153.657 5.51705 153.738 6.03125 153.738 6.64205V7.06818H148.693V6.19886H152.716C152.716 5.82955 152.642 5.5 152.494 5.21023C152.349 4.92045 152.142 4.69176 151.872 4.52415C151.605 4.35653 151.289 4.27273 150.926 4.27273C150.525 4.27273 150.179 4.37216 149.886 4.57102C149.596 4.76705 149.373 5.02273 149.217 5.33807C149.061 5.65341 148.983 5.99148 148.983 6.35227V6.93182C148.983 7.42614 149.068 7.84517 149.238 8.18892C149.412 8.52983 149.652 8.78977 149.958 8.96875C150.265 9.14489 150.622 9.23295 151.028 9.23295C151.292 9.23295 151.531 9.19602 151.744 9.12216C151.96 9.04545 152.146 8.93182 152.302 8.78125C152.458 8.62784 152.579 8.4375 152.664 8.21023L153.636 8.48295C153.534 8.8125 153.362 9.10227 153.12 9.35227C152.879 9.59943 152.581 9.79261 152.225 9.93182C151.87 10.0682 151.471 10.1364 151.028 10.1364ZM163.279 4.92045L162.376 5.17614C162.319 5.02557 162.235 4.87926 162.125 4.73722C162.017 4.59233 161.869 4.47301 161.681 4.37926C161.494 4.28551 161.254 4.23864 160.961 4.23864C160.561 4.23864 160.227 4.33097 159.96 4.51562C159.696 4.69744 159.564 4.92898 159.564 5.21023C159.564 5.46023 159.654 5.65767 159.836 5.80256C160.018 5.94744 160.302 6.06818 160.689 6.16477L161.66 6.40341C162.245 6.54545 162.681 6.76278 162.968 7.0554C163.255 7.34517 163.399 7.71875 163.399 8.17614C163.399 8.55114 163.291 8.88636 163.075 9.18182C162.862 9.47727 162.564 9.71023 162.18 9.88068C161.797 10.0511 161.35 10.1364 160.842 10.1364C160.174 10.1364 159.622 9.99148 159.184 9.7017C158.747 9.41193 158.47 8.98864 158.353 8.43182L159.308 8.19318C159.399 8.54545 159.571 8.80966 159.824 8.9858C160.079 9.16193 160.413 9.25 160.825 9.25C161.294 9.25 161.666 9.15057 161.941 8.9517C162.22 8.75 162.359 8.50852 162.359 8.22727C162.359 8 162.279 7.80966 162.12 7.65625C161.961 7.5 161.717 7.38352 161.387 7.30682L160.297 7.05114C159.697 6.90909 159.257 6.68892 158.975 6.39062C158.697 6.08949 158.558 5.71307 158.558 5.26136C158.558 4.89205 158.662 4.56534 158.869 4.28125C159.079 3.99716 159.365 3.77415 159.725 3.61222C160.089 3.45028 160.501 3.36932 160.961 3.36932C161.609 3.36932 162.118 3.51136 162.487 3.79545C162.859 4.07955 163.123 4.45455 163.279 4.92045ZM167.657 10.1364C167.026 10.1364 166.482 9.99716 166.025 9.71875C165.57 9.4375 165.219 9.04545 164.972 8.54261C164.728 8.03693 164.606 7.44886 164.606 6.77841C164.606 6.10795 164.728 5.51705 164.972 5.00568C165.219 4.49148 165.563 4.09091 166.004 3.80398C166.447 3.5142 166.964 3.36932 167.555 3.36932C167.896 3.36932 168.232 3.42614 168.565 3.53977C168.897 3.65341 169.2 3.83807 169.472 4.09375C169.745 4.34659 169.962 4.68182 170.124 5.09943C170.286 5.51705 170.367 6.03125 170.367 6.64205V7.06818H165.322V6.19886H169.344C169.344 5.82955 169.271 5.5 169.123 5.21023C168.978 4.92045 168.771 4.69176 168.501 4.52415C168.234 4.35653 167.918 4.27273 167.555 4.27273C167.154 4.27273 166.808 4.37216 166.515 4.57102C166.225 4.76705 166.002 5.02273 165.846 5.33807C165.69 5.65341 165.612 5.99148 165.612 6.35227V6.93182C165.612 7.42614 165.697 7.84517 165.867 8.18892C166.04 8.52983 166.281 8.78977 166.587 8.96875C166.894 9.14489 167.251 9.23295 167.657 9.23295C167.921 9.23295 168.16 9.19602 168.373 9.12216C168.589 9.04545 168.775 8.93182 168.931 8.78125C169.087 8.62784 169.208 8.4375 169.293 8.21023L170.265 8.48295C170.163 8.8125 169.991 9.10227 169.749 9.35227C169.508 9.59943 169.21 9.79261 168.854 9.93182C168.499 10.0682 168.1 10.1364 167.657 10.1364ZM171.897 10V3.45455H172.869V4.47727H172.954C173.09 4.12784 173.31 3.85653 173.614 3.66335C173.918 3.46733 174.283 3.36932 174.71 3.36932C175.141 3.36932 175.501 3.46733 175.788 3.66335C176.077 3.85653 176.303 4.12784 176.465 4.47727H176.533C176.701 4.1392 176.952 3.87074 177.288 3.67188C177.623 3.47017 178.025 3.36932 178.494 3.36932C179.079 3.36932 179.558 3.55256 179.93 3.91903C180.302 4.28267 180.488 4.84943 180.488 5.61932V10H179.482V5.61932C179.482 5.13636 179.35 4.79119 179.086 4.58381C178.822 4.37642 178.511 4.27273 178.153 4.27273C177.692 4.27273 177.336 4.41193 177.083 4.69034C176.83 4.96591 176.704 5.31534 176.704 5.73864V10H175.681V5.51705C175.681 5.14489 175.56 4.84517 175.319 4.6179C175.077 4.38778 174.766 4.27273 174.386 4.27273C174.124 4.27273 173.88 4.34233 173.653 4.48153C173.428 4.62074 173.246 4.81392 173.107 5.06108C172.971 5.3054 172.903 5.58807 172.903 5.90909V10H171.897ZM187.628 10.1534C187.213 10.1534 186.837 10.0753 186.499 9.91903C186.161 9.75994 185.892 9.53125 185.693 9.23295C185.494 8.93182 185.395 8.56818 185.395 8.14205C185.395 7.76705 185.469 7.46307 185.616 7.23011C185.764 6.99432 185.962 6.80966 186.209 6.67614C186.456 6.54261 186.729 6.44318 187.027 6.37784C187.328 6.30966 187.631 6.25568 187.935 6.21591C188.332 6.16477 188.655 6.12642 188.902 6.10085C189.152 6.07244 189.334 6.02557 189.447 5.96023C189.564 5.89489 189.622 5.78125 189.622 5.61932V5.58523C189.622 5.16477 189.507 4.83807 189.277 4.60511C189.05 4.37216 188.705 4.25568 188.241 4.25568C187.761 4.25568 187.385 4.3608 187.112 4.57102C186.839 4.78125 186.648 5.00568 186.537 5.24432L185.582 4.90341C185.753 4.50568 185.98 4.19602 186.264 3.97443C186.551 3.75 186.864 3.59375 187.202 3.50568C187.543 3.41477 187.878 3.36932 188.207 3.36932C188.418 3.36932 188.659 3.39489 188.932 3.44602C189.207 3.49432 189.473 3.59517 189.729 3.74858C189.987 3.90199 190.202 4.13352 190.372 4.44318C190.543 4.75284 190.628 5.16761 190.628 5.6875V10H189.622V9.11364H189.571C189.503 9.25568 189.389 9.40767 189.23 9.5696C189.071 9.73153 188.859 9.86932 188.595 9.98295C188.331 10.0966 188.009 10.1534 187.628 10.1534ZM187.781 9.25C188.179 9.25 188.514 9.17188 188.787 9.01562C189.063 8.85938 189.27 8.65767 189.409 8.41051C189.551 8.16335 189.622 7.90341 189.622 7.63068V6.71023C189.58 6.76136 189.486 6.80824 189.341 6.85085C189.199 6.89062 189.034 6.92614 188.847 6.95739C188.662 6.9858 188.482 7.01136 188.305 7.03409C188.132 7.05398 187.991 7.07102 187.884 7.08523C187.622 7.11932 187.378 7.17472 187.151 7.25142C186.926 7.32528 186.744 7.4375 186.605 7.58807C186.469 7.7358 186.401 7.9375 186.401 8.19318C186.401 8.54261 186.53 8.80682 186.788 8.9858C187.05 9.16193 187.381 9.25 187.781 9.25ZM195.123 10.1364C194.509 10.1364 193.98 9.99148 193.537 9.7017C193.094 9.41193 192.753 9.01278 192.515 8.50426C192.276 7.99574 192.157 7.41477 192.157 6.76136C192.157 6.09659 192.279 5.50994 192.523 5.00142C192.77 4.49006 193.114 4.09091 193.554 3.80398C193.998 3.5142 194.515 3.36932 195.105 3.36932C195.566 3.36932 195.98 3.45455 196.35 3.625C196.719 3.79545 197.022 4.03409 197.257 4.34091C197.493 4.64773 197.64 5.00568 197.696 5.41477H196.691C196.614 5.11648 196.444 4.85227 196.179 4.62216C195.918 4.3892 195.566 4.27273 195.123 4.27273C194.73 4.27273 194.387 4.375 194.091 4.57955C193.799 4.78125 193.57 5.06676 193.405 5.43608C193.243 5.80256 193.162 6.23295 193.162 6.72727C193.162 7.23295 193.242 7.6733 193.401 8.0483C193.563 8.4233 193.79 8.71449 194.083 8.92188C194.378 9.12926 194.725 9.23295 195.123 9.23295C195.384 9.23295 195.621 9.1875 195.834 9.09659C196.047 9.00568 196.228 8.875 196.375 8.70455C196.523 8.53409 196.628 8.32955 196.691 8.09091H197.696C197.64 8.47727 197.499 8.82528 197.275 9.13494C197.053 9.44176 196.759 9.68608 196.392 9.8679C196.029 10.0469 195.605 10.1364 195.123 10.1364ZM201.911 10.1364C201.28 10.1364 200.736 9.99716 200.279 9.71875C199.824 9.4375 199.473 9.04545 199.226 8.54261C198.982 8.03693 198.86 7.44886 198.86 6.77841C198.86 6.10795 198.982 5.51705 199.226 5.00568C199.473 4.49148 199.817 4.09091 200.257 3.80398C200.701 3.5142 201.218 3.36932 201.809 3.36932C202.15 3.36932 202.486 3.42614 202.819 3.53977C203.151 3.65341 203.453 3.83807 203.726 4.09375C203.999 4.34659 204.216 4.68182 204.378 5.09943C204.54 5.51705 204.621 6.03125 204.621 6.64205V7.06818H199.576V6.19886H203.598C203.598 5.82955 203.525 5.5 203.377 5.21023C203.232 4.92045 203.025 4.69176 202.755 4.52415C202.488 4.35653 202.172 4.27273 201.809 4.27273C201.408 4.27273 201.061 4.37216 200.769 4.57102C200.479 4.76705 200.256 5.02273 200.1 5.33807C199.944 5.65341 199.865 5.99148 199.865 6.35227V6.93182C199.865 7.42614 199.951 7.84517 200.121 8.18892C200.294 8.52983 200.534 8.78977 200.841 8.96875C201.148 9.14489 201.505 9.23295 201.911 9.23295C202.175 9.23295 202.414 9.19602 202.627 9.12216C202.843 9.04545 203.029 8.93182 203.185 8.78125C203.341 8.62784 203.462 8.4375 203.547 8.21023L204.519 8.48295C204.417 8.8125 204.245 9.10227 204.003 9.35227C203.762 9.59943 203.463 9.79261 203.108 9.93182C202.753 10.0682 202.354 10.1364 201.911 10.1364ZM207.157 6.0625V10H206.151V3.45455H207.123V4.47727H207.208C207.361 4.14489 207.594 3.87784 207.907 3.67614C208.219 3.47159 208.623 3.36932 209.117 3.36932C209.56 3.36932 209.948 3.46023 210.28 3.64205C210.613 3.82102 210.871 4.09375 211.056 4.46023C211.24 4.82386 211.333 5.28409 211.333 5.84091V10H210.327V5.90909C210.327 5.39489 210.194 4.99432 209.926 4.70739C209.659 4.41761 209.293 4.27273 208.827 4.27273C208.506 4.27273 208.219 4.34233 207.966 4.48153C207.716 4.62074 207.519 4.82386 207.374 5.09091C207.229 5.35795 207.157 5.68182 207.157 6.0625ZM216.017 3.45455V4.30682H212.625V3.45455H216.017ZM213.614 1.88636H214.619V8.125C214.619 8.40909 214.661 8.62216 214.743 8.7642C214.828 8.90341 214.936 8.99716 215.067 9.04545C215.2 9.09091 215.341 9.11364 215.489 9.11364C215.599 9.11364 215.69 9.10795 215.761 9.09659C215.832 9.08239 215.889 9.07102 215.932 9.0625L216.136 9.96591C216.068 9.99148 215.973 10.017 215.851 10.0426C215.729 10.071 215.574 10.0852 215.386 10.0852C215.102 10.0852 214.824 10.0241 214.551 9.90199C214.281 9.77983 214.057 9.59375 213.878 9.34375C213.702 9.09375 213.614 8.77841 213.614 8.39773V1.88636ZM220.119 10.1364C219.528 10.1364 219.009 9.99574 218.563 9.71449C218.12 9.43324 217.773 9.03977 217.523 8.53409C217.276 8.02841 217.153 7.4375 217.153 6.76136C217.153 6.07955 217.276 5.48437 217.523 4.97585C217.773 4.46733 218.12 4.07244 218.563 3.79119C219.009 3.50994 219.528 3.36932 220.119 3.36932C220.71 3.36932 221.227 3.50994 221.67 3.79119C222.116 4.07244 222.462 4.46733 222.71 4.97585C222.96 5.48437 223.085 6.07955 223.085 6.76136C223.085 7.4375 222.96 8.02841 222.71 8.53409C222.462 9.03977 222.116 9.43324 221.67 9.71449C221.227 9.99574 220.71 10.1364 220.119 10.1364ZM220.119 9.23295C220.567 9.23295 220.937 9.1179 221.227 8.88778C221.516 8.65767 221.731 8.35511 221.87 7.98011C222.009 7.60511 222.079 7.19886 222.079 6.76136C222.079 6.32386 222.009 5.91619 221.87 5.53835C221.731 5.16051 221.516 4.85511 221.227 4.62216C220.937 4.3892 220.567 4.27273 220.119 4.27273C219.67 4.27273 219.3 4.3892 219.011 4.62216C218.721 4.85511 218.506 5.16051 218.367 5.53835C218.228 5.91619 218.158 6.32386 218.158 6.76136C218.158 7.19886 218.228 7.60511 218.367 7.98011C218.506 8.35511 218.721 8.65767 219.011 8.88778C219.3 9.1179 219.67 9.23295 220.119 9.23295ZM225.353 10.0682C225.142 10.0682 224.962 9.9929 224.811 9.84233C224.661 9.69176 224.586 9.51136 224.586 9.30114C224.586 9.09091 224.661 8.91051 224.811 8.75994C224.962 8.60937 225.142 8.53409 225.353 8.53409C225.563 8.53409 225.743 8.60937 225.894 8.75994C226.044 8.91051 226.12 9.09091 226.12 9.30114C226.12 9.44034 226.084 9.56818 226.013 9.68466C225.945 9.80114 225.853 9.89489 225.736 9.96591C225.623 10.0341 225.495 10.0682 225.353 10.0682Z" fill="#495057"/>
</svg>
